name rise35.5848peak51.9257fall54.8793.mot
datacolumns 19
datarows 18
range 12.08661200000000 12.11495200000000
endheader
time	ground_force1_vx	ground_force1_vy	ground_force1_vz	ground_force1_px	ground_force1_py	ground_force1_pz	ground_force2_vx	ground_force2_vy	ground_force2_vz	ground_force2_px	ground_force2_py	ground_force2_pz	ground_torque1_x	ground_torque1_y	ground_torque1_z	ground_torque2_x	ground_torque2_y	ground_torque2_z	
12.08661200000000	57.56428900000000	791.75923200000000	58.96087600000000	0.29227400000000	0.00000000000000	0.13427600000000	0.00000000000000	0.00000000000000	0.00000000000000	0.00000000000000	0.00000000000000	0.00000000000000	0.00000000000000	19.33392800000000	0.00000000000000	0.00000000000000	0.00000000000000	0.00000000000000	
12.08829600000000	56.82860300000000	793.71280600000000	58.99909900000000	0.29142000000000	0.00000000000000	0.13423300000000	0.00000000000000	0.00000000000000	0.00000000000000	0.00000000000000	0.00000000000000	0.00000000000000	0.00000000000000	19.41501800000000	0.00000000000000	0.00000000000000	0.00000000000000	0.00000000000000	
12.08995300000000	56.09373000000000	795.48802000000001	59.03146700000000	0.29058400000000	0.00000000000000	0.13418900000000	0.00000000000000	0.00000000000000	0.00000000000000	0.00000000000000	0.00000000000000	0.00000000000000	0.00000000000000	19.49381000000000	0.00000000000000	0.00000000000000	0.00000000000000	0.00000000000000	
12.09161100000000	55.36056800000000	797.08553099999995	59.05804800000000	0.28976500000000	0.00000000000000	0.13414600000000	0.00000000000000	0.00000000000000	0.00000000000000	0.00000000000000	0.00000000000000	0.00000000000000	0.00000000000000	19.57016500000000	0.00000000000000	0.00000000000000	0.00000000000000	0.00000000000000	
12.09328400000000	54.62994100000000	798.50628500000005	59.07886100000000	0.28896000000000	0.00000000000000	0.13410300000000	0.00000000000000	0.00000000000000	0.00000000000000	0.00000000000000	0.00000000000000	0.00000000000000	0.00000000000000	19.64392400000000	0.00000000000000	0.00000000000000	0.00000000000000	0.00000000000000	
12.09495300000000	53.90259600000000	799.75151900000003	59.09387700000000	0.28817000000000	0.00000000000000	0.13406000000000	0.00000000000000	0.00000000000000	0.00000000000000	0.00000000000000	0.00000000000000	0.00000000000000	0.00000000000000	19.71491500000000	0.00000000000000	0.00000000000000	0.00000000000000	0.00000000000000	
12.09661800000000	53.17920500000000	800.82275900000002	59.10302300000000	0.28739200000000	0.00000000000000	0.13401600000000	0.00000000000000	0.00000000000000	0.00000000000000	0.00000000000000	0.00000000000000	0.00000000000000	0.00000000000000	19.78294700000000	0.00000000000000	0.00000000000000	0.00000000000000	0.00000000000000	
12.09828300000000	52.46037100000000	801.72181999999998	59.10618500000000	0.28662500000000	0.00000000000000	0.13397300000000	0.00000000000000	0.00000000000000	0.00000000000000	0.00000000000000	0.00000000000000	0.00000000000000	0.00000000000000	19.84781900000000	0.00000000000000	0.00000000000000	0.00000000000000	0.00000000000000	
12.09995300000000	51.74662600000000	802.45080399999995	59.10321200000000	0.28586600000000	0.00000000000000	0.13392900000000	0.00000000000000	0.00000000000000	0.00000000000000	0.00000000000000	0.00000000000000	0.00000000000000	0.00000000000000	19.90932000000000	0.00000000000000	0.00000000000000	0.00000000000000	0.00000000000000	
12.10161700000000	51.03843500000000	803.01209800000004	59.09391900000000	0.28511500000000	0.00000000000000	0.13388600000000	0.00000000000000	0.00000000000000	0.00000000000000	0.00000000000000	0.00000000000000	0.00000000000000	0.00000000000000	19.96723000000000	0.00000000000000	0.00000000000000	0.00000000000000	0.00000000000000	
12.10329200000000	50.33620000000000	803.40836700000000	59.07809200000000	0.28437100000000	0.00000000000000	0.13384200000000	0.00000000000000	0.00000000000000	0.00000000000000	0.00000000000000	0.00000000000000	0.00000000000000	0.00000000000000	20.02132200000000	0.00000000000000	0.00000000000000	0.00000000000000	0.00000000000000	
12.10494900000000	49.64026100000000	803.64255300000002	59.05549400000000	0.28363000000000	0.00000000000000	0.13379800000000	0.00000000000000	0.00000000000000	0.00000000000000	0.00000000000000	0.00000000000000	0.00000000000000	0.00000000000000	20.07136600000000	0.00000000000000	0.00000000000000	0.00000000000000	0.00000000000000	
12.10661700000000	48.95089900000000	803.71786199999997	59.02586200000000	0.28289100000000	0.00000000000000	0.13375400000000	0.00000000000000	0.00000000000000	0.00000000000000	0.00000000000000	0.00000000000000	0.00000000000000	0.00000000000000	20.11713200000000	0.00000000000000	0.00000000000000	0.00000000000000	0.00000000000000	
12.10828300000000	48.26834300000000	803.63776099999995	58.98892200000000	0.28215400000000	0.00000000000000	0.13371100000000	0.00000000000000	0.00000000000000	0.00000000000000	0.00000000000000	0.00000000000000	0.00000000000000	0.00000000000000	20.15838600000000	0.00000000000000	0.00000000000000	0.00000000000000	0.00000000000000	
12.10995000000000	47.59276900000000	803.40597000000002	58.94438500000000	0.28141500000000	0.00000000000000	0.13366700000000	0.00000000000000	0.00000000000000	0.00000000000000	0.00000000000000	0.00000000000000	0.00000000000000	0.00000000000000	20.19490100000000	0.00000000000000	0.00000000000000	0.00000000000000	0.00000000000000	
12.11161400000000	46.92430700000000	803.02644599999996	58.89195200000000	0.28067500000000	0.00000000000000	0.13362300000000	0.00000000000000	0.00000000000000	0.00000000000000	0.00000000000000	0.00000000000000	0.00000000000000	0.00000000000000	20.22645300000000	0.00000000000000	0.00000000000000	0.00000000000000	0.00000000000000	
12.11329100000000	46.26304200000000	802.50338099999999	58.83132400000000	0.27993000000000	0.00000000000000	0.13357900000000	0.00000000000000	0.00000000000000	0.00000000000000	0.00000000000000	0.00000000000000	0.00000000000000	0.00000000000000	20.25282400000000	0.00000000000000	0.00000000000000	0.00000000000000	0.00000000000000	
12.11495200000000	45.60902100000000	801.84118300000000	58.76220100000000	0.27917900000000	0.00000000000000	0.13353400000000	0.00000000000000	0.00000000000000	0.00000000000000	0.00000000000000	0.00000000000000	0.00000000000000	0.00000000000000	20.27380700000000	0.00000000000000	0.00000000000000	0.00000000000000	0.00000000000000	
